<?xml version="1.0" encoding="utf-8"?>
<!-- Generator: Adobe Illustrator 18.0.0, SVG Export Plug-In . SVG Version: 6.00 Build 0)  -->
<!DOCTYPE svg PUBLIC "-//W3C//DTD SVG 1.1//EN" "http://www.w3.org/Graphics/SVG/1.1/DTD/svg11.dtd">
<svg version="1.1" id="Layer_1" xmlns="http://www.w3.org/2000/svg" xmlns:xlink="http://www.w3.org/1999/xlink" x="0px" y="0px"
	 viewBox="0 545.8 461 65.9" enable-background="new 0 545.8 461 65.9" xml:space="preserve">
<g>
	<g>
		<path fill="#606060" d="M91.7,578.9l-18.3-33.1H7c-3.9,0-7,3.2-7,7v51.9c0,3.9,3.2,7,7,7h66.3L91.7,578.9z"/>
		<path fill="#BB0E3D" d="M89.8,549.3c-1.3-2.1-3.5-3.5-6.1-3.5h-5.4L97,578.9L78.3,612h5.4c2.5,0,4.9-1.3,6.1-3.5l16.5-29.6
			L89.8,549.3z"/>
	</g>
	<g>
		<rect x="39" y="564.3" fill="#FFFFFF" width="4.9" height="29.4"/>
		<polygon fill="#FFFFFF" points="29.4,564.3 29.4,585.8 15.9,564.3 10.9,564.3 10.9,593.6 15.9,593.6 15.9,572 29.4,593.6 
			34.1,593.6 34.1,564.3 		"/>
		<polygon fill="#FFFFFF" points="67.2,564.3 67.2,576.5 53.7,576.5 53.7,564.3 48.8,564.3 48.8,593.6 53.7,593.6 53.7,581.3 
			67.2,581.3 67.2,593.6 72.1,593.6 72.1,564.3 		"/>
	</g>
</g>
<g>
	<g>
		<path fill="#BB0E3D" d="M131.9,555.6h3v13.6h-3l-6.5-8.6v8.6h-3v-13.6h2.9l6.8,8.9v-8.9H131.9z"/>
		<path fill="#BB0E3D" d="M148,569.4l-1.3-2.9H141l-1.3,2.9h-3.3l5.9-13.6h2.9l5.9,13.6H148L148,569.4z M143.9,559.7l-1.7,3.9h3.5
			L143.9,559.7z"/>
		<path fill="#BB0E3D" d="M157.6,558.2v10.9h-3v-10.9h-3.9v-2.6h10.9v2.6H157.6z"/>
		<path fill="#BB0E3D" d="M163.7,555.6h3v13.6h-3V555.6z"/>
		<path fill="#BB0E3D" d="M181.6,567.4c-1.3,1.3-3,2-5.2,2c-2.2,0-3.7-0.7-5.2-2c-1.3-1.3-2.1-3-2.1-5s0.7-3.7,2.1-5
			c1.3-1.3,3-2,5.2-2c2.2,0,3.7,0.7,5.2,2c1.3,1.3,2.1,3,2.1,5S183.1,566.1,181.6,567.4z M180.5,562.4c0-1.2-0.4-2.2-1.2-3.2
			s-1.7-1.3-2.9-1.3s-2.1,0.4-2.9,1.3c-0.8,0.9-1.2,1.9-1.2,3.2c0,1.2,0.4,2.2,1.2,3.2c0.8,0.8,1.7,1.3,2.9,1.3s2.1-0.4,2.9-1.3
			C180.2,564.7,180.5,563.7,180.5,562.4z"/>
		<path fill="#BB0E3D" d="M195.9,555.6h3v13.6h-3l-6.5-8.6v8.6h-3v-13.6h2.9l6.8,8.9v-8.9H195.9z"/>
		<path fill="#BB0E3D" d="M212,569.4l-1.3-2.9H205l-1.3,2.9h-3.3l5.9-13.6h2.9l5.9,13.6H212L212,569.4z M207.9,559.7l-1.7,3.9h3.5
			L207.9,559.7z"/>
		<path fill="#BB0E3D" d="M216.9,569.4v-13.6h3v10.9h5.8v2.8L216.9,569.4L216.9,569.4z"/>
		<path fill="#BB0E3D" d="M239.4,566.6c1.5,0,2.8-0.5,3.7-1.7l2,2c-1.6,1.7-3.5,2.6-5.4,2.6c-2.1,0-3.9-0.7-5.2-2c-1.3-1.3-2-3-2-5
			s0.7-3.7,2.1-5c1.5-1.3,3-2,5.2-2c2.2,0,4.1,0.8,5.7,2.5l-1.9,2.1c-0.9-1.2-2.1-1.9-3.5-1.9c-1.2,0-2.1,0.4-2.9,1.2
			c-0.8,0.8-1.2,1.7-1.2,3c0,1.3,0.4,2.2,1.2,3C237.4,566.2,238.4,566.6,239.4,566.6z"/>
		<path fill="#BB0E3D" d="M257.1,569.4l-1.3-2.9h-5.7l-1.3,2.9h-3.2l5.9-13.6h2.9l5.9,13.6H257.1L257.1,569.4z M253,559.7l-1.7,3.9
			h3.5L253,559.7z"/>
		<path fill="#BB0E3D" d="M271.5,555.6h3v13.6h-3l-6.5-8.6v8.6h-3v-13.6h2.9l6.8,8.9v-8.9H271.5z"/>
		<path fill="#BB0E3D" d="M284.2,566.6c1.5,0,2.8-0.5,3.7-1.7l2,2c-1.6,1.7-3.5,2.6-5.4,2.6c-2,0-3.9-0.7-5.2-2c-1.3-1.3-2-3-2-5
			s0.7-3.7,2.1-5c1.5-1.3,3-2,5.2-2c2.2,0,4.1,0.8,5.7,2.5l-1.9,2.1c-0.9-1.2-2.1-1.9-3.5-1.9c-1.2,0-2.1,0.4-2.9,1.2
			c-0.8,0.8-1.2,1.7-1.2,3c0,1.3,0.4,2.2,1.2,3C282.1,566.2,283.1,566.6,284.2,566.6z"/>
		<path fill="#BB0E3D" d="M302.1,555.6v2.8h-6.8v2.8h6.1v2.6h-6.1v2.8h7v2.6h-10v-13.6L302.1,555.6L302.1,555.6z"/>
		<path fill="#BB0E3D" d="M316.1,560.2c0,2.2-0.9,3.5-2.6,4.2l3.5,4.9h-3.7l-3-4.4h-2.1v4.4h-3v-13.6h5.2c2.1,0,3.7,0.4,4.5,1.1
			C315.7,557.5,316.1,558.7,316.1,560.2z M312.4,561.9c0.4-0.4,0.5-0.9,0.5-1.6c0-0.8-0.2-1.2-0.5-1.5c-0.4-0.2-1.1-0.4-2.1-0.4
			h-2.2v4.1h2.2C311.4,562.4,312,562.2,312.4,561.9z"/>
		<path fill="#BB0E3D" d="M324.5,555.6h3v13.6h-3V555.6z"/>
		<path fill="#BB0E3D" d="M340.4,555.6h3v13.6h-3l-6.5-8.6v8.6h-3v-13.6h2.9l6.8,8.9v-8.9H340.4z"/>
		<path fill="#BB0E3D" d="M350,558.4c-0.2,0.2-0.4,0.5-0.4,0.9s0.2,0.7,0.5,0.9s1.2,0.5,2.5,0.8c1.3,0.2,2.2,0.8,3,1.5
			c0.7,0.7,1.1,1.6,1.1,2.8c0,1.2-0.4,2.2-1.3,3c-0.9,0.8-2.1,1.2-3.5,1.2c-2.1,0-4.1-0.8-5.8-2.4l1.9-2.2c1.5,1.3,2.8,2,4.1,2
			c0.5,0,1.1-0.2,1.3-0.4c0.2-0.2,0.5-0.5,0.5-0.9s-0.2-0.8-0.5-0.9c-0.4-0.2-1.1-0.5-2-0.8c-1.6-0.4-2.8-0.9-3.5-1.5
			c-0.8-0.7-1.1-1.6-1.1-2.9c0-1.3,0.5-2.2,1.5-3c0.9-0.7,2.1-1.1,3.5-1.1c0.9,0,1.9,0.2,2.8,0.5c0.9,0.4,1.7,0.8,2.4,1.3l-1.6,2.2
			c-1.2-0.9-2.4-1.3-3.7-1.3C350.7,558,350.4,558.2,350,558.4z"/>
		<path fill="#BB0E3D" d="M364.9,558.2v10.9h-3v-10.9h-3.9v-2.6h10.9v2.6H364.9z"/>
		<path fill="#BB0E3D" d="M371.1,555.6h3v13.6h-3V555.6z"/>
		<path fill="#BB0E3D" d="M383.3,558.2v10.9h-3v-10.9h-3.9v-2.6h10.9v2.6H383.3z"/>
		<path fill="#BB0E3D" d="M392.9,565.8c0.5,0.7,1.2,0.9,2.1,0.9c0.9,0,1.6-0.2,2-0.9c0.5-0.7,0.8-1.5,0.8-2.6v-7.6h3v7.7
			c0,2-0.5,3.5-1.6,4.6c-1.1,1.1-2.5,1.6-4.2,1.6c-1.7,0-3.2-0.5-4.2-1.6s-1.6-2.6-1.6-4.5v-7.7h3v7.6
			C392.3,564.3,392.5,565.2,392.9,565.8z"/>
		<path fill="#BB0E3D" d="M409.9,558.2v10.9h-3v-10.9H403v-2.6h10.9v2.6H409.9z"/>
		<path fill="#BB0E3D" d="M425.9,555.6v2.8h-6.8v2.8h6.1v2.6h-6.1v2.8h7v2.6h-10v-13.6L425.9,555.6L425.9,555.6z"/>
	</g>
</g>
<rect x="119.9" y="583.1" fill="none" width="613.7" height="103.5"/>
<text transform="matrix(1 0 0 1 119.9609 603.2187)" display="none" fill="#606060" enable-background="new    " font-family="'Montserrat-Bold'" font-size="25.6587">The Name of the Site Here</text>
<g enable-background="new    ">
	<path fill="#606060" d="M129.8,588.7v14.5h-4v-14.5h-5.1v-3.5h14.2v3.5H129.8z"/>
	<path fill="#606060" d="M141.1,595.8v7.4h-3.8v-19h3.8v6.8c1.2-1.2,2.5-1.8,3.9-1.8c1.4,0,2.7,0.5,3.7,1.5s1.5,2.4,1.5,4.1v8.4
		h-3.8v-7.5c0-2.1-0.8-3.2-2.3-3.2c-0.8,0-1.4,0.3-2,0.8C141.4,593.9,141.1,594.7,141.1,595.8z"/>
	<path fill="#606060" d="M165.6,601.2c-1.6,1.5-3.4,2.2-5.5,2.2c-2.1,0-3.8-0.6-5.2-1.9c-1.4-1.3-2.1-3-2.1-5.2
		c0-2.2,0.7-3.9,2.1-5.2c1.4-1.3,3-1.9,4.9-1.9s3.5,0.6,4.8,1.7c1.3,1.1,2,2.7,2,4.7v2.1h-10.1c0.1,0.8,0.5,1.4,1.2,1.8
		c0.7,0.5,1.4,0.7,2.3,0.7c1.4,0,2.5-0.5,3.3-1.4L165.6,601.2z M161.9,593c-0.5-0.4-1.2-0.7-1.9-0.7s-1.5,0.2-2.1,0.7
		c-0.6,0.5-1,1.1-1.1,1.9h6.1C162.8,594.1,162.4,593.5,161.9,593z"/>
	<path fill="#606060" d="M189.2,585.3h4v17.9h-4l-8.5-11.2v11.2h-4v-17.9h3.7l8.8,11.5V585.3z"/>
	<path fill="#606060" d="M209,603.2h-3.6v-1.7c-1,1.2-2.2,1.9-3.7,1.9c-1.5,0-2.7-0.4-3.7-1.3c-1-0.8-1.5-2-1.5-3.4s0.5-2.5,1.5-3.2
		c1-0.7,2.4-1.1,4.2-1.1h2.9v-0.1c0-1.5-0.8-2.2-2.3-2.2c-0.7,0-1.4,0.1-2.1,0.4c-0.7,0.3-1.4,0.6-1.9,1l-1.7-2.5
		c1.8-1.3,3.9-2,6.2-2c1.7,0,3,0.4,4.1,1.3c1.1,0.8,1.6,2.2,1.6,4V603.2z M205.1,598v-0.7h-2.4c-1.5,0-2.3,0.5-2.3,1.4
		c0,0.5,0.2,0.9,0.6,1.1c0.4,0.3,0.9,0.4,1.6,0.4c0.7,0,1.3-0.2,1.8-0.6C204.8,599.2,205.1,598.7,205.1,598z"/>
	<path fill="#606060" d="M225.2,595.8v7.4h-3.9v-7.5c0-1.1-0.2-1.9-0.5-2.4c-0.3-0.5-0.9-0.8-1.6-0.8s-1.4,0.3-2,0.8
		c-0.6,0.6-0.9,1.4-0.9,2.5v7.4h-3.8v-13.8h3.8v1.6c1.1-1.2,2.3-1.8,3.6-1.8c0.9,0,1.7,0.3,2.4,0.8c0.7,0.5,1.2,1.1,1.6,1.9
		c0.5-0.8,1.2-1.5,2.1-2c0.9-0.5,1.8-0.7,2.7-0.7c1.6,0,2.9,0.5,3.9,1.4c1,1,1.5,2.4,1.5,4.2v8.4h-3.9v-7.5c0-2.1-0.8-3.2-2.3-3.2
		c-0.8,0-1.4,0.3-2,0.8C225.4,593.9,225.2,594.7,225.2,595.8z"/>
	<path fill="#606060" d="M249.7,601.2c-1.6,1.5-3.4,2.2-5.5,2.2c-2.1,0-3.8-0.6-5.2-1.9c-1.4-1.3-2.1-3-2.1-5.2
		c0-2.2,0.7-3.9,2.1-5.2c1.4-1.3,3-1.9,4.9-1.9s3.5,0.6,4.8,1.7c1.3,1.1,2,2.7,2,4.7v2.1h-10.1c0.1,0.8,0.5,1.4,1.2,1.8
		c0.7,0.5,1.4,0.7,2.3,0.7c1.4,0,2.5-0.5,3.3-1.4L249.7,601.2z M246,593c-0.5-0.4-1.2-0.7-1.9-0.7s-1.5,0.2-2.1,0.7
		c-0.6,0.5-1,1.1-1.1,1.9h6.1C246.8,594.1,246.5,593.5,246,593z"/>
	<path fill="#606060" d="M274.1,596.3c0,2-0.7,3.7-2.1,5.1c-1.4,1.4-3.1,2.1-5.2,2.1c-2.1,0-3.8-0.7-5.2-2.1
		c-1.4-1.4-2.1-3.1-2.1-5.1c0-2,0.7-3.7,2.1-5.1c1.4-1.4,3.1-2.1,5.2-2.1c2.1,0,3.8,0.7,5.2,2.1S274.1,594.3,274.1,596.3z
		 M263.4,596.3c0,1.1,0.3,2,1,2.8c0.6,0.7,1.5,1.1,2.5,1.1c1,0,1.8-0.4,2.5-1.1s1-1.6,1-2.8s-0.3-2.1-1-2.8
		c-0.6-0.7-1.5-1.1-2.5-1.1c-1,0-1.8,0.4-2.5,1.1C263.7,594.3,263.4,595.2,263.4,596.3z"/>
	<path fill="#606060" d="M281.4,588.6v0.9h3.3v2.8h-3.3v10.9h-3.9v-10.9h-1.6v-2.8h1.6v-0.8c0-1.5,0.5-2.7,1.4-3.6
		c0.9-0.9,2.1-1.3,3.4-1.3s2.6,0.5,3.7,1.5l-1.4,2.6c-0.6-0.6-1.2-1-1.9-1c-0.4,0-0.7,0.1-1,0.4
		C281.5,587.7,281.4,588.1,281.4,588.6z"/>
	<path fill="#606060" d="M298.4,592.2v6.2c0,0.5,0.1,0.9,0.4,1.2c0.3,0.3,0.6,0.4,1,0.4c0.7,0,1.3-0.3,1.8-1l1.4,2.7
		c-1.2,1.1-2.5,1.6-3.8,1.6c-1.3,0-2.4-0.4-3.4-1.3c-0.9-0.9-1.4-2.1-1.4-3.6v-6.4H293v-2.8h1.6v-4.1h3.9v4.1h3.3v2.8H298.4z"/>
	<path fill="#606060" d="M309,595.8v7.4h-3.8v-19h3.8v6.8c1.2-1.2,2.5-1.8,3.9-1.8c1.4,0,2.7,0.5,3.7,1.5c1,1,1.5,2.4,1.5,4.1v8.4
		h-3.8v-7.5c0-2.1-0.8-3.2-2.3-3.2c-0.8,0-1.4,0.3-2,0.8C309.3,593.9,309,594.7,309,595.8z"/>
	<path fill="#606060" d="M333.5,601.2c-1.6,1.5-3.4,2.2-5.5,2.2c-2.1,0-3.8-0.6-5.2-1.9c-1.4-1.3-2.1-3-2.1-5.2
		c0-2.2,0.7-3.9,2.1-5.2c1.4-1.3,3-1.9,4.9-1.9c1.9,0,3.5,0.6,4.8,1.7c1.3,1.1,2,2.7,2,4.7v2.1h-10.1c0.1,0.8,0.5,1.4,1.2,1.8
		c0.7,0.5,1.4,0.7,2.3,0.7c1.4,0,2.5-0.5,3.3-1.4L333.5,601.2z M329.8,593c-0.5-0.4-1.2-0.7-1.9-0.7s-1.5,0.2-2.1,0.7
		s-1,1.1-1.1,1.9h6.1C330.6,594.1,330.3,593.5,329.8,593z"/>
	<path fill="#606060" d="M348.7,588.9c-0.4,0.3-0.6,0.7-0.6,1.3s0.2,0.9,0.7,1.2c0.5,0.3,1.6,0.7,3.3,1.1c1.7,0.4,3,1,4,1.9
		s1.4,2.1,1.4,3.7c0,1.6-0.6,2.9-1.8,3.9s-2.8,1.5-4.8,1.5c-2.8,0-5.4-1.1-7.7-3.2l2.4-2.9c1.9,1.7,3.7,2.5,5.4,2.5
		c0.7,0,1.3-0.2,1.7-0.5c0.4-0.3,0.6-0.7,0.6-1.3c0-0.5-0.2-1-0.7-1.3c-0.4-0.3-1.3-0.6-2.6-1c-2.1-0.5-3.6-1.1-4.6-1.9
		c-1-0.8-1.5-2-1.5-3.7s0.6-3,1.8-3.9c1.2-0.9,2.7-1.4,4.6-1.4c1.2,0,2.4,0.2,3.6,0.6c1.2,0.4,2.2,1,3.1,1.7l-2,2.9
		c-1.6-1.2-3.2-1.8-4.8-1.8C349.7,588.4,349.1,588.5,348.7,588.9z"/>
	<path fill="#606060" d="M360.9,587.7c-0.4-0.4-0.7-1-0.7-1.6c0-0.6,0.2-1.2,0.7-1.6s1-0.7,1.6-0.7s1.2,0.2,1.6,0.7
		c0.4,0.4,0.7,1,0.7,1.6c0,0.6-0.2,1.2-0.7,1.6c-0.4,0.4-1,0.7-1.6,0.7S361.3,588.1,360.9,587.7z M364.4,603.2h-3.8v-13.8h3.8V603.2
		z"/>
	<path fill="#606060" d="M372.6,592.2v6.2c0,0.5,0.1,0.9,0.4,1.2c0.3,0.3,0.6,0.4,1,0.4c0.7,0,1.3-0.3,1.8-1l1.4,2.7
		c-1.2,1.1-2.5,1.6-3.8,1.6c-1.3,0-2.4-0.4-3.4-1.3c-0.9-0.9-1.4-2.1-1.4-3.6v-6.4h-1.6v-2.8h1.6v-4.1h3.9v4.1h3.3v2.8H372.6z"/>
	<path fill="#606060" d="M391.3,601.2c-1.6,1.5-3.4,2.2-5.5,2.2c-2.1,0-3.8-0.6-5.2-1.9c-1.4-1.3-2.1-3-2.1-5.2
		c0-2.2,0.7-3.9,2.1-5.2c1.4-1.3,3-1.9,4.9-1.9c1.9,0,3.5,0.6,4.8,1.7c1.3,1.1,2,2.7,2,4.7v2.1h-10.1c0.1,0.8,0.5,1.4,1.2,1.8
		c0.7,0.5,1.4,0.7,2.3,0.7c1.4,0,2.5-0.5,3.3-1.4L391.3,601.2z M387.6,593c-0.5-0.4-1.2-0.7-1.9-0.7s-1.5,0.2-2.1,0.7
		s-1,1.1-1.1,1.9h6.1C388.4,594.1,388.1,593.5,387.6,593z"/>
	<path fill="#606060" d="M413.5,585.3h4v17.9h-4v-7.1h-7.1v7.1h-4v-17.9h4v7.5h7.1V585.3z"/>
	<path fill="#606060" d="M433.5,601.2c-1.6,1.5-3.4,2.2-5.5,2.2c-2.1,0-3.8-0.6-5.2-1.9c-1.4-1.3-2.1-3-2.1-5.2
		c0-2.2,0.7-3.9,2.1-5.2c1.4-1.3,3-1.9,4.9-1.9c1.9,0,3.5,0.6,4.8,1.7c1.3,1.1,2,2.7,2,4.7v2.1h-10.1c0.1,0.8,0.5,1.4,1.2,1.8
		c0.7,0.5,1.4,0.7,2.3,0.7c1.4,0,2.5-0.5,3.3-1.4L433.5,601.2z M429.8,593c-0.5-0.4-1.2-0.7-1.9-0.7s-1.5,0.2-2.1,0.7
		s-1,1.1-1.1,1.9h6.1C430.6,594.1,430.3,593.5,429.8,593z"/>
	<path fill="#606060" d="M444.6,592.8c-1.1,0-2,0.4-2.6,1.2s-0.8,1.9-0.8,3.2v6h-3.8v-13.8h3.8v1.8c0.5-0.6,1.1-1,1.9-1.4
		c0.7-0.4,1.5-0.6,2.3-0.6l0,3.6H444.6z"/>
	<path fill="#606060" d="M459.9,601.2c-1.6,1.5-3.4,2.2-5.5,2.2c-2.1,0-3.8-0.6-5.2-1.9c-1.4-1.3-2.1-3-2.1-5.2
		c0-2.2,0.7-3.9,2.1-5.2c1.4-1.3,3-1.9,4.9-1.9c1.9,0,3.5,0.6,4.8,1.7c1.3,1.1,2,2.7,2,4.7v2.1h-10.1c0.1,0.8,0.5,1.4,1.2,1.8
		c0.7,0.5,1.4,0.7,2.3,0.7c1.4,0,2.5-0.5,3.3-1.4L459.9,601.2z M456.2,593c-0.5-0.4-1.2-0.7-1.9-0.7s-1.5,0.2-2.1,0.7
		s-1,1.1-1.1,1.9h6.1C457,594.1,456.7,593.5,456.2,593z"/>
</g>
<g display="none" enable-background="new    ">
	<path display="inline" fill="#606060" d="M133.8,594.1h4v6.4c-1.8,2-4.2,3-7.4,3c-2.6,0-4.9-0.8-6.6-2.6c-1.8-1.8-2.7-3.9-2.7-6.6
		c0-2.7,0.9-4.9,2.7-6.6c1.8-1.8,4-2.7,6.6-2.7c2.5,0,4.8,0.8,6.7,2.5l-2.1,3c-0.8-0.7-1.5-1.2-2.2-1.5c-0.7-0.2-1.4-0.4-2.2-0.4
		c-1.5,0-2.8,0.5-3.9,1.5c-1.1,1-1.5,2.4-1.5,4.1c0,1.7,0.5,3.1,1.5,4.1c1,1,2.2,1.5,3.5,1.5s2.5-0.2,3.5-0.8L133.8,594.1
		L133.8,594.1z"/>
	<path display="inline" fill="#606060" d="M148.3,592.8c-1.2,0-2,0.4-2.5,1.2s-0.8,1.9-0.8,3.2v6h-3.9v-13.8h3.9v1.9
		c0.5-0.5,1.1-1.1,1.9-1.5c0.8-0.4,1.5-0.6,2.2-0.6v3.6L148.3,592.8L148.3,592.8z"/>
	<path display="inline" fill="#606060" d="M163.2,603.2h-3.6v-1.7c-1,1.2-2.2,1.9-3.7,1.9c-1.5,0-2.7-0.4-3.7-1.2
		c-1-0.8-1.5-2-1.5-3.4c0-1.4,0.5-2.5,1.5-3.2c1-0.7,2.5-1.1,4.2-1.1h2.9l0,0c0-1.5-0.8-2.2-2.3-2.2c-0.7,0-1.4,0.2-2.1,0.4
		c-0.8,0.2-1.4,0.6-1.9,1l-1.7-2.5c1.9-1.3,3.9-2,6.2-2c1.7,0,3,0.4,4.1,1.2c1.1,0.8,1.6,2.2,1.6,4v8.8H163.2z M159.3,597.9v-0.7
		h-2.4c-1.5,0-2.3,0.5-2.3,1.5c0,0.5,0.2,0.8,0.5,1.2c0.4,0.2,0.9,0.4,1.5,0.4c0.7,0,1.3-0.2,1.8-0.6
		C159,599.3,159.3,598.6,159.3,597.9z"/>
	<path display="inline" fill="#606060" d="M172.2,603.4c-1.6,0-3.1-0.7-4.4-2.1s-1.9-3.1-1.9-5.2s0.6-3.7,1.9-5
		c1.2-1.3,2.7-1.9,4.4-1.9s3,0.6,4.1,1.8v-6.8h3.9v19h-3.9v-1.9C175.2,602.7,173.8,603.4,172.2,603.4z M169.8,596.3
		c0,1.1,0.3,2,1,2.7c0.7,0.7,1.5,1.1,2.3,1.1c0.8,0,1.6-0.4,2.2-1.1c0.6-0.7,0.9-1.6,0.9-2.8s-0.3-2.1-0.9-2.8
		c-0.6-0.8-1.4-1.1-2.3-1.1s-1.7,0.4-2.3,1.2C170.1,594.3,169.8,595.2,169.8,596.3z"/>
	<path display="inline" fill="#606060" d="M192.6,596.9v-7.5h3.9v13.8h-3.9v-1.8c-0.9,1.4-2.2,2-3.7,2c-1.5,0-2.8-0.5-3.8-1.4
		s-1.5-2.4-1.5-4.2v-8.4h3.9v7.6c0,2.2,0.8,3.2,2.3,3.2c0.8,0,1.5-0.3,2-0.8C192.4,598.7,192.6,597.9,192.6,596.9z"/>
	<path display="inline" fill="#606060" d="M211.9,603.2h-3.6v-1.7c-1,1.2-2.2,1.9-3.7,1.9s-2.7-0.4-3.7-1.2c-1-0.8-1.5-2-1.5-3.4
		c0-1.4,0.5-2.5,1.5-3.2c1-0.7,2.5-1.1,4.2-1.1h2.9l0,0c0-1.5-0.8-2.2-2.3-2.2c-0.7,0-1.4,0.2-2.1,0.4c-0.8,0.2-1.4,0.6-1.9,1
		l-1.7-2.5c1.9-1.3,3.9-2,6.2-2c1.7,0,3,0.4,4.1,1.2c1.1,0.8,1.6,2.2,1.6,4v8.8H211.9z M208.1,597.9v-0.7h-2.4
		c-1.5,0-2.3,0.5-2.3,1.5c0,0.5,0.2,0.8,0.5,1.2c0.4,0.2,0.9,0.4,1.5,0.4c0.7,0,1.3-0.2,1.8-0.6
		C207.8,599.3,208.1,598.6,208.1,597.9z"/>
	<path display="inline" fill="#606060" d="M219.9,592.2v6.2c0,0.5,0.2,0.9,0.4,1.2c0.3,0.3,0.6,0.5,1,0.5c0.7,0,1.3-0.3,1.9-1
		l1.5,2.7c-1.2,1.1-2.5,1.6-3.8,1.6c-1.3,0-2.5-0.5-3.4-1.3c-0.9-0.8-1.4-2.1-1.4-3.5v-6.3h-1.6v-2.8h1.6v-4.2h3.9v4.2h3.3v2.8
		H219.9z"/>
	<path display="inline" fill="#606060" d="M238.5,601.3c-1.5,1.5-3.4,2.2-5.5,2.2s-3.9-0.6-5.2-1.9c-1.4-1.3-2.1-3-2.1-5.2
		s0.7-3.9,2.1-5.2c1.4-1.3,3-1.9,4.9-1.9c1.9,0,3.5,0.5,4.9,1.7c1.3,1.2,2,2.7,2,4.7v2.1h-10c0.2,0.8,0.5,1.4,1.2,1.9
		c0.6,0.5,1.4,0.7,2.2,0.7c1.4,0,2.5-0.5,3.3-1.4L238.5,601.3z M234.8,593c-0.5-0.5-1.2-0.7-1.9-0.7s-1.5,0.2-2.1,0.7
		c-0.6,0.5-1,1.1-1.1,1.9h6.1C235.7,594.1,235.3,593.5,234.8,593z"/>
	<path display="inline" fill="#606060" d="M253.8,588.8c-0.4,0.3-0.5,0.8-0.5,1.2c0,0.5,0.2,0.9,0.7,1.2c0.5,0.3,1.5,0.7,3.2,1.1
		c1.7,0.4,3,1.1,3.9,1.9c0.9,0.8,1.4,2.1,1.4,3.7s-0.6,2.9-1.8,3.9c-1.2,1-2.8,1.5-4.8,1.5c-2.9,0-5.4-1.1-7.7-3.2l2.4-2.9
		c1.9,1.7,3.7,2.5,5.4,2.5c0.8,0,1.3-0.2,1.7-0.5s0.6-0.8,0.6-1.3s-0.2-1-0.7-1.3s-1.3-0.6-2.6-0.9c-2.1-0.5-3.6-1.2-4.5-1.9
		c-1-0.8-1.5-2.1-1.5-3.8s0.6-3,1.9-3.9c1.2-0.9,2.8-1.4,4.5-1.4c1.2,0,2.4,0.2,3.6,0.6c1.2,0.4,2.2,1,3.2,1.8l-2,2.9
		c-1.5-1.2-3.2-1.8-4.9-1.8C254.7,588.4,254.2,588.5,253.8,588.8z"/>
	<path display="inline" fill="#606060" d="M269.8,592.2v6.2c0,0.5,0.2,0.9,0.4,1.2c0.3,0.3,0.6,0.5,1,0.5c0.7,0,1.3-0.3,1.9-1
		l1.5,2.7c-1.2,1.1-2.5,1.6-3.8,1.6s-2.5-0.5-3.4-1.3c-0.9-0.8-1.4-2.1-1.4-3.5v-6.3h-1.6v-2.8h1.6v-4.2h3.9v4.2h3.3v2.8H269.8z"/>
	<path display="inline" fill="#606060" d="M285.4,596.9v-7.5h3.9v13.8h-3.9v-1.8c-0.9,1.4-2.2,2-3.7,2s-2.8-0.5-3.8-1.4
		c-1-0.9-1.5-2.4-1.5-4.2v-8.4h3.9v7.6c0,2.2,0.8,3.2,2.3,3.2c0.8,0,1.5-0.3,2-0.8C285.1,598.7,285.4,597.9,285.4,596.9z"/>
	<path display="inline" fill="#606060" d="M298.5,603.4c-1.6,0-3.1-0.7-4.4-2.1c-1.3-1.4-1.9-3.1-1.9-5.2s0.6-3.7,1.9-5
		c1.2-1.3,2.7-1.9,4.4-1.9c1.7,0,3,0.6,4.1,1.8v-6.8h3.9v19h-3.9v-1.9C301.4,602.7,300.1,603.4,298.5,603.4z M296,596.3
		c0,1.1,0.3,2,1,2.7c0.7,0.7,1.5,1.1,2.3,1.1c0.9,0,1.6-0.4,2.2-1.1c0.6-0.7,0.9-1.6,0.9-2.8s-0.3-2.1-0.9-2.8
		c-0.6-0.8-1.4-1.1-2.3-1.1c-0.9,0-1.7,0.4-2.3,1.2C296.3,594.3,296,595.2,296,596.3z"/>
	<path display="inline" fill="#606060" d="M322,601.3c-1.5,1.5-3.4,2.2-5.5,2.2c-2.1,0-3.9-0.6-5.2-1.9c-1.4-1.3-2.1-3-2.1-5.2
		s0.7-3.9,2.1-5.2c1.4-1.3,3-1.9,4.9-1.9c1.9,0,3.5,0.5,4.9,1.7c1.3,1.2,2,2.7,2,4.7v2.1h-10c0.2,0.8,0.5,1.4,1.2,1.9
		c0.6,0.5,1.4,0.7,2.2,0.7c1.4,0,2.5-0.5,3.3-1.4L322,601.3z M318.3,593c-0.5-0.5-1.2-0.7-1.9-0.7s-1.5,0.2-2.1,0.7
		c-0.6,0.5-1,1.1-1.1,1.9h6.1C319.1,594.1,318.8,593.5,318.3,593z"/>
	<path display="inline" fill="#606060" d="M329.7,595.6v7.7h-3.9v-13.8h3.9v1.5c1.2-1.2,2.5-1.8,3.9-1.8s2.7,0.5,3.6,1.5
		c0.9,1,1.5,2.4,1.5,4.1v8.4h-3.9v-7.8c0-2.2-0.8-3.2-2.3-3.2c-0.8,0-1.5,0.3-2,0.8S329.7,594.5,329.7,595.6z"/>
	<path display="inline" fill="#606060" d="M346.7,592.2v6.2c0,0.5,0.2,0.9,0.4,1.2c0.3,0.3,0.6,0.5,1,0.5c0.7,0,1.3-0.3,1.9-1
		l1.5,2.7c-1.2,1.1-2.5,1.6-3.8,1.6s-2.5-0.5-3.4-1.3c-0.9-0.8-1.4-2.1-1.4-3.5v-6.3h-1.6v-2.8h1.6v-4.2h3.9v4.2h3.3v2.8H346.7z"/>
	<path display="inline" fill="#606060" d="M375,591.2c0,2.9-1.2,4.7-3.4,5.6l4.5,6.4h-4.9l-4-5.7h-2.8v5.7h-4v-18h6.8
		c2.8,0,4.8,0.5,5.9,1.4C374.5,587.6,375,589.2,375,591.2z M370.3,593.4c0.5-0.5,0.8-1.2,0.8-2.1s-0.2-1.6-0.8-2
		c-0.5-0.4-1.4-0.5-2.7-0.5h-3v5.3h2.9C368.8,594,369.7,593.8,370.3,593.4z"/>
	<path display="inline" fill="#606060" d="M390.8,601.3c-1.5,1.5-3.4,2.2-5.5,2.2s-3.9-0.6-5.2-1.9c-1.4-1.3-2.1-3-2.1-5.2
		s0.7-3.9,2.1-5.2c1.4-1.3,3-1.9,4.9-1.9c1.9,0,3.5,0.5,4.9,1.7s2,2.7,2,4.7v2.1h-10c0.2,0.8,0.5,1.4,1.2,1.9
		c0.6,0.5,1.4,0.7,2.2,0.7c1.4,0,2.5-0.5,3.3-1.4L390.8,601.3z M387.1,593c-0.5-0.5-1.2-0.7-1.9-0.7c-0.8,0-1.5,0.2-2.1,0.7
		s-1,1.1-1.1,1.9h6.1C387.9,594.1,387.6,593.5,387.1,593z"/>
	<path display="inline" fill="#606060" d="M401.2,600c1.3,0,2.5-0.6,3.5-1.9l2.3,2.5c-1.8,1.9-3.7,2.8-5.8,2.8s-3.9-0.6-5.2-1.9
		c-1.5-1.3-2.2-3-2.2-5.2c0-2.1,0.7-3.9,2.2-5.2c1.5-1.3,3.2-2,5.2-2c1,0,2,0.2,3,0.6c1,0.4,1.9,1,2.7,1.9l-2,2.6
		c-0.5-0.5-1-0.9-1.6-1.2c-0.6-0.3-1.3-0.5-1.9-0.5c-1,0-1.9,0.3-2.6,1c-0.7,0.7-1.1,1.5-1.1,2.8c0,1.2,0.4,2.1,1.1,2.7
		C399.4,599.7,400.3,600,401.2,600z"/>
	<path display="inline" fill="#606060" d="M416.8,592.8c-1.2,0-2,0.4-2.5,1.2c-0.5,0.8-0.8,1.9-0.8,3.2v6h-3.9v-13.8h3.9v1.9
		c0.5-0.5,1.1-1.1,1.9-1.5s1.5-0.6,2.2-0.6v3.6L416.8,592.8L416.8,592.8z"/>
	<path display="inline" fill="#606060" d="M429,596.9v-7.5h3.9v13.8H429v-1.8c-0.9,1.4-2.2,2-3.7,2c-1.5,0-2.8-0.5-3.8-1.4
		c-1-0.9-1.5-2.4-1.5-4.2v-8.4h3.9v7.6c0,2.2,0.8,3.2,2.3,3.2c0.8,0,1.5-0.3,2-0.8C428.8,598.7,429,597.9,429,596.9z"/>
	<path display="inline" fill="#606060" d="M436.9,587.7c-0.5-0.5-0.6-1-0.6-1.6s0.2-1.2,0.6-1.6c0.5-0.5,1-0.6,1.6-0.6
		s1.2,0.2,1.6,0.6c0.5,0.5,0.6,1,0.6,1.6s-0.2,1.2-0.6,1.6c-0.5,0.5-1,0.6-1.6,0.6S437.3,588.1,436.9,587.7z M440.4,603.2h-3.9
		v-13.8h3.9V603.2z"/>
	<path display="inline" fill="#606060" d="M448.7,592.2v6.2c0,0.5,0.2,0.9,0.4,1.2c0.3,0.3,0.6,0.5,1,0.5c0.7,0,1.3-0.3,1.9-1
		l1.5,2.7c-1.2,1.1-2.5,1.6-3.8,1.6c-1.3,0-2.5-0.5-3.4-1.3c-0.9-0.8-1.4-2.1-1.4-3.5v-6.3h-1.6v-2.8h1.6v-4.2h3.9v4.2h3.3v2.8
		H448.7z"/>
	<path display="inline" fill="#606060" d="M455.7,587.7c-0.5-0.5-0.6-1-0.6-1.6s0.2-1.2,0.6-1.6c0.5-0.5,1-0.6,1.6-0.6
		s1.2,0.2,1.6,0.6c0.5,0.5,0.6,1,0.6,1.6s-0.2,1.2-0.6,1.6c-0.5,0.5-1,0.6-1.6,0.6S456.1,588.1,455.7,587.7z M459.1,603.2h-3.9
		v-13.8h3.9V603.2z"/>
	<path display="inline" fill="#606060" d="M466.7,595.6v7.7h-3.9v-13.8h3.9v1.5c1.2-1.2,2.5-1.8,3.9-1.8c1.5,0,2.7,0.5,3.6,1.5
		c0.9,1,1.5,2.4,1.5,4.1v8.4h-3.9v-7.8c0-2.2-0.8-3.2-2.3-3.2c-0.8,0-1.5,0.3-2,0.8C467,593.7,466.7,594.5,466.7,595.6z"/>
	<path display="inline" fill="#606060" d="M489.4,600.9c-1.2,1.4-2.7,2-4.5,2c-1.8,0-3.3-0.6-4.5-1.9c-1.2-1.2-1.9-2.9-1.9-4.9
		c0-2.1,0.6-3.7,1.9-5c1.3-1.3,2.7-1.9,4.4-1.9s3,0.7,4.1,2v-1.9h3.9v12.1c0,1.2-0.2,2.3-0.6,3.3c-0.5,0.9-1,1.7-1.7,2.2
		c-1.4,1.2-3.1,1.7-5,1.7c-1,0-2.1-0.2-3.2-0.5c-1.1-0.3-2-0.8-2.8-1.4l1.5-2.9c1.2,0.9,2.6,1.5,4,1.5s2.5-0.4,3.3-1.1
		C489,603.5,489.4,602.4,489.4,600.9z M488.9,596c0-1.1-0.3-2-0.9-2.6c-0.6-0.6-1.4-0.9-2.3-0.9s-1.7,0.3-2.3,0.9
		c-0.7,0.6-1,1.5-1,2.6c0,1.1,0.3,2,0.9,2.6c0.6,0.7,1.4,1,2.3,1c0.9,0,1.7-0.3,2.3-1C488.5,597.9,488.9,597.1,488.9,596z"/>
	<path display="inline" fill="#606060" d="M515.8,586.9c1.2,1.1,1.9,2.7,1.9,4.9c0,2.2-0.6,3.9-1.9,4.9c-1.3,1-3.2,1.5-5.9,1.5h-2.4
		v5h-4v-18h6.3C512.6,585.3,514.6,585.8,515.8,586.9z M512.9,593.9c0.5-0.5,0.7-1.3,0.7-2.4c0-1.1-0.3-1.8-0.9-2.2s-1.6-0.6-2.9-0.6
		h-2.3v6h2.7C511.5,594.8,512.4,594.5,512.9,593.9z"/>
	<path display="inline" fill="#606060" d="M527.7,592.8c-1.2,0-2,0.4-2.5,1.2s-0.8,1.9-0.8,3.2v6h-3.9v-13.8h3.9v1.9
		c0.5-0.5,1.1-1.1,1.9-1.5s1.5-0.6,2.2-0.6v3.6L527.7,592.8L527.7,592.8z"/>
	<path display="inline" fill="#606060" d="M544.6,596.3c0,2-0.7,3.7-2.1,5.1c-1.4,1.4-3.2,2.1-5.2,2.1c-2.1,0-3.9-0.7-5.2-2.1
		s-2.1-3.1-2.1-5.1s0.7-3.7,2.1-5.1s3.2-2.1,5.2-2.1c2.1,0,3.9,0.7,5.2,2.1C543.9,592.6,544.6,594.3,544.6,596.3z M533.9,596.3
		c0,1.2,0.3,2.1,0.9,2.8s1.5,1.1,2.5,1.1s1.9-0.4,2.5-1.1c0.6-0.7,0.9-1.6,0.9-2.8s-0.3-2.1-0.9-2.8c-0.6-0.7-1.5-1.1-2.5-1.1
		s-1.9,0.4-2.5,1.1S533.9,595.2,533.9,596.3z"/>
	<path display="inline" fill="#606060" d="M557.7,600.9c-1.2,1.4-2.7,2-4.5,2c-1.8,0-3.3-0.6-4.5-1.9c-1.2-1.2-1.9-2.9-1.9-4.9
		c0-2.1,0.6-3.7,1.9-5c1.3-1.3,2.7-1.9,4.4-1.9s3,0.7,4.1,2v-1.9h3.9v12.1c0,1.2-0.2,2.3-0.6,3.3c-0.5,0.9-1,1.7-1.7,2.2
		c-1.4,1.2-3.1,1.7-5,1.7c-1,0-2.1-0.2-3.2-0.5s-2-0.8-2.8-1.4l1.5-2.9c1.2,0.9,2.6,1.5,4,1.5s2.5-0.4,3.3-1.1
		C557.3,603.5,557.7,602.4,557.7,600.9z M557.1,596c0-1.1-0.3-2-0.9-2.6c-0.6-0.6-1.4-0.9-2.3-0.9c-0.9,0-1.7,0.3-2.3,0.9
		c-0.7,0.6-1,1.5-1,2.6c0,1.1,0.3,2,0.9,2.6c0.6,0.7,1.4,1,2.3,1s1.7-0.3,2.3-1C556.7,597.9,557.1,597.1,557.1,596z"/>
	<path display="inline" fill="#606060" d="M571.8,592.8c-1.2,0-2,0.4-2.5,1.2s-0.8,1.9-0.8,3.2v6h-3.9v-13.8h3.9v1.9
		c0.5-0.5,1.1-1.1,1.9-1.5s1.5-0.6,2.2-0.6v3.6L571.8,592.8L571.8,592.8z"/>
	<path display="inline" fill="#606060" d="M586.7,603.2h-3.6v-1.7c-1,1.2-2.2,1.9-3.7,1.9s-2.7-0.4-3.7-1.2c-1-0.8-1.5-2-1.5-3.4
		c0-1.4,0.5-2.5,1.5-3.2c1-0.7,2.5-1.1,4.2-1.1h2.9l0,0c0-1.5-0.8-2.2-2.3-2.2c-0.7,0-1.4,0.2-2.1,0.4c-0.8,0.2-1.4,0.6-1.9,1
		l-1.7-2.5c1.9-1.3,3.9-2,6.2-2c1.7,0,3,0.4,4.1,1.2c1.1,0.8,1.6,2.2,1.6,4v8.8H586.7z M582.9,597.9v-0.7h-2.4
		c-1.5,0-2.3,0.5-2.3,1.5c0,0.5,0.2,0.8,0.5,1.2c0.4,0.2,0.9,0.4,1.5,0.4s1.3-0.2,1.8-0.6C582.6,599.3,582.9,598.6,582.9,597.9z"/>
	<path display="inline" fill="#606060" d="M602.9,595.8v7.5H599v-7.6c0-1.1-0.2-1.9-0.5-2.4c-0.3-0.5-0.8-0.8-1.6-0.8
		c-0.8,0-1.4,0.3-2,0.8c-0.6,0.5-0.8,1.4-0.8,2.5v7.5h-3.9v-13.8h3.9v1.5c1.1-1.2,2.3-1.8,3.6-1.8c0.8,0,1.7,0.2,2.4,0.8
		c0.7,0.5,1.2,1.2,1.6,1.9c0.5-0.8,1.2-1.5,2.2-1.9s1.8-0.7,2.7-0.7c1.6,0,2.9,0.5,3.9,1.5s1.5,2.4,1.5,4.2v8.4h-3.9v-7.6
		c0-2.2-0.8-3.2-2.3-3.2c-0.8,0-1.5,0.3-2,0.8C603.3,594,602.9,594.7,602.9,595.8z"/>
</g>
</svg>
